<?xml version="1.0" encoding="UTF-8" standalone="no"?>
<!-- Created with Inkscape (http://www.inkscape.org/) -->

<svg
   xmlns:dc="http://purl.org/dc/elements/1.1/"
   xmlns:cc="http://creativecommons.org/ns#"
   xmlns:rdf="http://www.w3.org/1999/02/22-rdf-syntax-ns#"
   xmlns:svg="http://www.w3.org/2000/svg"
   xmlns="http://www.w3.org/2000/svg"
   xmlns:sodipodi="http://sodipodi.sourceforge.net/DTD/sodipodi-0.dtd"
   xmlns:inkscape="http://www.inkscape.org/namespaces/inkscape"
   id="svg4256"
   version="1.1"
   inkscape:version="0.91 r13725"
   width="90"
   height="81"
   viewBox="0 0 90 81"
   sodipodi:docname="DateButtonImage.svg"
   inkscape:export-filename="/Users/Ed/Developer/Approved Ideas/Multiple Event Countdown/Multiple Event Countdown/Supporting Documents/Assets.xcassets/DateButtonImage.imageset/calendar-1559935_1280.png"
   inkscape:export-xdpi="90"
   inkscape:export-ydpi="90">
  <metadata
     id="metadata4262">
    <rdf:RDF>
      <cc:Work
         rdf:about="">
        <dc:format>image/svg+xml</dc:format>
        <dc:type
           rdf:resource="http://purl.org/dc/dcmitype/StillImage" />
        <dc:title></dc:title>
      </cc:Work>
    </rdf:RDF>
  </metadata>
  <defs
     id="defs4260" />
  <sodipodi:namedview
     pagecolor="#ffffff"
     bordercolor="#787a7e"
     borderopacity="1"
     objecttolerance="10"
     gridtolerance="10"
     guidetolerance="10"
     inkscape:pageopacity="0"
     inkscape:pageshadow="2"
     inkscape:window-width="1440"
     inkscape:window-height="799"
     id="namedview4258"
     showgrid="false"
     fit-margin-top="0"
     fit-margin-left="0"
     fit-margin-right="0"
     fit-margin-bottom="0"
     inkscape:zoom="6.5898778"
     inkscape:cx="46.908597"
     inkscape:cy="39.608139"
     inkscape:window-x="0"
     inkscape:window-y="1"
     inkscape:window-maximized="1"
     inkscape:current-layer="svg4256"
     showguides="false" />
  <path
     style="fill:#000000;fill-opacity:1"
     d="M 1.9980212,80.775723 C 1.2582722,80.51223 0.33032333,79.516766 0.1310748,78.772942 0.02542793,78.378544 -0.00879831,68.478676 0.0166885,45.686966 l 0.03636908,-32.52318 0.4242881,-0.68985 C 0.78624254,11.971702 1.1063136,11.6766 1.6542313,11.388868 l 0.7525975,-0.39522 3.001341,0 3.0013409,0 0.042931,3.016468 c 0.042846,3.010648 0.043666,3.017585 0.424177,3.595087 0.2780366,0.421978 0.6389942,0.706228 1.3333378,1.049987 0.901581,0.446361 1.046751,0.473979 2.736344,0.520593 2.051489,0.05661 2.945744,-0.133216 3.899491,-0.827728 1.112085,-0.809808 1.146062,-0.938668 1.146659,-4.348766 l 5.26e-4,-3.005641 5.839268,0 5.839268,0 5.62e-4,3.005641 c 5.63e-4,3.410098 0.03457,3.538958 1.146659,4.348766 0.953746,0.694506 1.848001,0.884325 3.899491,0.827728 1.689594,-0.04662 1.834763,-0.07423 2.736342,-0.520593 0.694344,-0.343759 1.055303,-0.628009 1.33334,-1.049987 0.380512,-0.577502 0.381328,-0.584439 0.424178,-3.595087 l 0.04289,-3.016468 5.753405,0 5.753406,0 0.04292,3.016468 c 0.04283,3.010648 0.04368,3.017585 0.424178,3.595087 0.278049,0.421978 0.638995,0.706228 1.333339,1.049987 0.90158,0.446361 1.046748,0.473979 2.736343,0.520593 2.05149,0.05661 2.945745,-0.133216 3.899491,-0.827728 1.112086,-0.809808 1.146062,-0.938668 1.14666,-4.348766 l 5.25e-4,-3.005641 5.839266,0 5.839269,0 5.65e-4,3.005641 c 5.61e-4,3.408726 0.03491,3.539213 1.143484,4.346455 0.876623,0.638374 1.77019,0.851534 3.569576,0.851534 1.785346,0 2.643094,-0.202045 3.620499,-0.852849 1.125867,-0.749642 1.233839,-1.143076 1.233839,-4.49588 l 0,-2.854901 3.009096,0 3.009096,0 0.752595,0.39522 c 0.547918,0.287744 0.86799,0.582834 1.176888,1.085068 l 0.424286,0.68985 0.03638,32.52318 c 0.02642,23.558698 -0.0069,32.684449 -0.120368,33.108266 -0.205978,0.768985 -1.264622,1.84192 -2.026591,2.053964 -0.406222,0.113044 -12.346801,0.153747 -42.9151,0.146243 C 7.921668,80.986434 2.5117044,80.958698 1.9980212,80.775714 Z M 83.037822,76.755635 c 0.719075,-0.200724 1.473036,-0.895879 1.654156,-1.525113 0.102869,-0.357341 0.136038,-7.930375 0.107281,-24.491696 L 84.757626,26.76442 84.419783,26.288252 C 84.233977,26.026353 83.822406,25.693601 83.5052,25.54879 82.94738,25.294124 81.683125,25.285389 44.967614,25.282388 7.4261886,25.279386 7.0007428,25.282373 6.4614024,25.558965 6.1614503,25.712803 5.7682399,26.046948 5.5875999,26.301535 L 5.2591516,26.76442 5.2175224,50.738826 c -0.027886,16.053362 0.00594,24.139908 0.1023884,24.475328 0.1792262,0.623381 0.7937322,1.228886 1.5063115,1.484241 0.4562362,0.163504 6.5758757,0.195652 38.1118097,0.200185 25.799246,0.0036 37.7348,-0.04106 38.09979,-0.142942 z m -75.8791496,-6.28566 0,-4.45542 5.8392676,0 5.839268,0 0,4.45542 0,4.45542 -5.839268,0 -5.8392676,0 0,-4.45542 z m 12.6634716,-0.0016 0,-4.456972 5.843384,0.03692 5.843383,0.03692 0.03107,4.420063 0.03107,4.420062 -5.874445,0 -5.874445,0 0,-4.456971 z m 12.663473,0.0016 0,-4.45542 5.90962,0 5.90962,0 0,4.45542 0,4.45542 -5.90962,0 -5.90962,0 0,-4.45542 z m 12.804177,0 0,-4.45542 5.839266,0 5.839269,0 0,4.45542 0,4.45542 -5.839269,0 -5.839266,0 0,-4.45542 z m 12.663472,0 0,-4.45542 5.839266,0 5.839269,0 0,4.45542 0,4.45542 -5.839269,0 -5.839266,0 0,-4.45542 z m -50.7945936,-9.759492 0,-4.45542 5.8392676,0 5.839268,0 0,4.45542 0,4.455419 -5.839268,0 -5.8392676,0 0,-4.455419 z m 12.6634716,0.0016 0,-4.456971 5.874445,-3e-6 5.874445,0 -0.03107,4.420059 -0.03107,4.42006 -5.843383,0.03692 -5.843384,0.03692 0,-4.456972 z m 12.758816,4.361125 c -0.05244,-0.05271 -0.09533,-2.058355 -0.09533,-4.456975 l 0,-4.361124 5.911625,0 5.911622,0 -0.03719,4.420059 -0.03719,4.42006 -5.779103,0.03692 c -3.178504,0.02041 -5.822003,-0.0063 -5.874443,-0.05892 z m 12.708834,-4.362679 0,-4.45542 5.839266,0 5.839269,0 0,4.45542 0,4.455419 -5.839269,0 -5.839266,0 0,-4.455419 z m 12.663472,0 0,-4.45542 5.839266,0 5.839269,0 0,4.45542 0,4.455419 -5.839269,0 -5.839266,0 0,-4.455419 z m 12.758815,4.362673 c -0.05244,-0.05271 -0.09533,-2.058349 -0.09533,-4.456969 l 0,-4.361124 5.911625,0 5.911623,0 -0.03719,4.420059 -0.03719,4.42006 -5.779099,0.03692 c -3.178504,0.02041 -5.822004,-0.0063 -5.874444,-0.05892 z M 7.1586724,50.95099 l 0,-4.45542 5.8392676,0 5.839268,0 0,4.45542 0,4.45542 -5.839268,0 -5.8392676,0 0,-4.45542 z m 12.6634716,0.0016 0,-4.456972 5.874445,-3e-6 5.874445,0 -0.03107,4.420059 -0.03107,4.42006 -5.843383,0.03692 -5.843384,0.03692 0,-4.456971 z M 32.57942,55.31212 c -0.0516,-0.05187 -0.0938,-2.056806 -0.0938,-4.455426 l 0,-4.361124 5.90962,0 5.90962,0 0,4.45542 0,4.45542 -5.815817,0 c -3.198699,0 -5.85803,-0.04245 -5.90962,-0.09428 z m 12.710374,-4.36113 0,-4.45542 5.839266,0 5.839269,0 0,4.45542 0,4.45542 -5.839269,0 -5.839266,0 0,-4.45542 z m 12.663472,0 0,-4.45542 5.839266,0 5.839269,0 0,4.45542 0,4.45542 -5.839269,0 -5.839266,0 0,-4.45542 z m 12.663472,0.0016 0,-4.456972 5.911625,0 5.911623,0 -0.03719,4.420059 -0.03719,4.42006 -5.874443,0.03692 -5.874443,0.03692 0,-4.456971 z m -63.4580656,-9.761048 0,-4.45542 5.8392676,0 5.839268,0 0,4.45542 0,4.45542 -5.839268,0 -5.8392676,0 0,-4.45542 z m 12.6634716,0.0016 0,-4.456972 5.874445,-3e-6 5.874445,0 -0.03107,4.42006 -0.03107,4.420059 -5.843383,0.03692 -5.843384,0.03692 0,-4.456971 z m 12.757276,4.359575 c -0.0516,-0.05187 -0.0938,-2.056806 -0.0938,-4.455426 l 0,-4.361124 5.90962,0 5.90962,0 0,4.45542 0,4.45542 -5.815817,0 c -3.198699,0 -5.85803,-0.04245 -5.90962,-0.09428 z m 12.710374,-4.36113 0,-4.45542 5.839266,0 5.839269,0 0,4.45542 0,4.45542 -5.839269,0 -5.839266,0 0,-4.45542 z m 12.663472,0 0,-4.45542 5.839266,0 5.839269,0 0,4.45542 0,4.45542 -5.839269,0 -5.839266,0 0,-4.45542 z m 12.663472,0 0,-4.45542 5.90962,0 5.909621,0 0,4.45542 0,4.45542 -5.909621,0 -5.90962,0 0,-4.45542 z m -38.131121,-9.900934 0,-4.45542 5.90962,0 5.90962,0 0,4.45542 0,4.45542 -5.90962,0 -5.90962,0 0,-4.45542 z m 12.804177,0 0,-4.45542 5.839266,0 5.839269,0 0,4.45542 0,4.45542 -5.839269,0 -5.839266,0 0,-4.45542 z m 12.663472,0 0,-4.45542 5.839266,0 5.839269,0 0,4.45542 0,4.45542 -5.839269,0 -5.839266,0 0,-4.45542 z m 12.663472,0 0,-4.45542 5.90962,0 5.909621,0 0,4.45542 0,4.45542 -5.909621,0 -5.90962,0 0,-4.45542 z M 11.768745,18.074257 C 11.083189,17.85267 10.41655,17.356352 10.085399,16.820997 L 9.7617195,16.297718 9.7197826,9.4377854 c -0.030455,-4.981575 0.00387,-7.026044 0.1253514,-7.4665812 0.213275,-0.7734001 1.14949,-1.63167358 2.020286,-1.85208928 2.120679,-0.53679013 4.302168,0.29996107 4.719527,1.81026938 0.08402,0.3040614 0.140426,3.2300221 0.140897,7.3093516 l 8.45e-4,6.8023261 -0.327511,0.623375 c -0.213653,0.40666 -0.561159,0.768843 -0.999597,1.04181 -0.598491,0.372611 -0.813003,0.422485 -1.95895,0.455435 -0.707774,0.02041 -1.460096,-0.01891 -1.671826,-0.08744 z m 21.076771,-0.07811 C 32.075541,17.720415 31.6242,17.354695 31.256761,16.70876 c -0.313568,-0.551228 -0.31428,-0.568263 -0.316588,-7.5948383 -0.0022,-6.7388672 0.0096,-7.0659968 0.275918,-7.5905909 0.498623,-0.98250237 1.669759,-1.56270627 3.151566,-1.56134949 1.493141,0.0013658 2.509308,0.45456424 3.14483,1.40255289 l 0.319935,0.4772362 0,7.199645 c 0,5.9223956 -0.03521,7.2674026 -0.198503,7.5815856 -0.307277,0.59125 -0.941025,1.12744 -1.615183,1.366542 -0.760027,0.269553 -2.429225,0.273035 -3.173223,0.0066 z M 54.08387,18.0446 c -0.611461,-0.226509 -1.320093,-0.793377 -1.629563,-1.303554 -0.255446,-0.421131 -0.268924,-0.8048 -0.269434,-7.6712855 l -5.25e-4,-7.2279811 0.319934,-0.4772362 c 0.635523,-0.94798865 1.651689,-1.40118711 3.144831,-1.40255289 1.486042,-0.0013598 2.652895,0.57875407 3.155294,1.56869159 0.272796,0.5375196 0.28069,0.789039 0.243049,7.743165 l -0.0389,7.1875991 -0.395089,0.520581 c -0.626049,0.8249 -1.35997,1.129079 -2.841132,1.177523 -0.69649,0.02281 -1.456298,-0.02882 -1.688463,-0.114935 z m 21.283644,0.02972 C 74.681959,17.85273 74.015321,17.356406 73.684169,16.821051 l -0.32368,-0.523279 -0.04025,-6.8965655 c -0.02642,-4.5269837 0.01081,-7.0872669 0.108422,-7.4515966 0.19337,-0.7218697 1.18742,-1.61576452 2.035541,-1.83044095 2.2881,-0.5791653 4.541254,0.42105913 4.787971,2.12549115 0.04905,0.3388723 0.06976,3.6394526 0.04605,7.33462 l -0.04316,6.7184919 -0.328832,0.53166 c -0.180853,0.292427 -0.620946,0.703745 -0.977979,0.914075 -0.556487,0.327832 -0.830894,0.387614 -1.922452,0.418826 -0.700317,0.02011 -1.446537,-0.01951 -1.658269,-0.08801 z"
     id="path4181"
     inkscape:connector-curvature="0" />
</svg>
