<?xml version="1.0" encoding="UTF-8" standalone="no"?>
<!-- Created with Inkscape (http://www.inkscape.org/) -->

<svg
   xmlns:dc="http://purl.org/dc/elements/1.1/"
   xmlns:cc="http://creativecommons.org/ns#"
   xmlns:rdf="http://www.w3.org/1999/02/22-rdf-syntax-ns#"
   xmlns:svg="http://www.w3.org/2000/svg"
   xmlns="http://www.w3.org/2000/svg"
   xmlns:sodipodi="http://sodipodi.sourceforge.net/DTD/sodipodi-0.dtd"
   xmlns:inkscape="http://www.inkscape.org/namespaces/inkscape"
   width="60.013306"
   height="49.925766"
   viewBox="0 0 60.013307 49.925767"
   id="svg5074"
   version="1.1"
   inkscape:version="0.91 r13725"
   sodipodi:docname="ImageButtonImage.svg"
   inkscape:export-filename="/Users/Ed/Developer/Approved Ideas/Multiple Event Countdown/Multiple Event Countdown/Inkscape Documents/NewEventDataButtonImages/ImageButtonImage.png"
   inkscape:export-xdpi="90"
   inkscape:export-ydpi="90">
  <defs
     id="defs5076" />
  <sodipodi:namedview
     id="base"
     pagecolor="#ffffff"
     bordercolor="#666666"
     borderopacity="1.0"
     inkscape:pageopacity="0.0"
     inkscape:pageshadow="2"
     inkscape:zoom="7.9195959"
     inkscape:cx="28.937589"
     inkscape:cy="24.297821"
     inkscape:document-units="px"
     inkscape:current-layer="layer1"
     showgrid="false"
     inkscape:window-width="1440"
     inkscape:window-height="799"
     inkscape:window-x="0"
     inkscape:window-y="1"
     inkscape:window-maximized="1"
     units="px"
     inkscape:object-paths="true"
     fit-margin-top="0"
     fit-margin-left="0"
     fit-margin-right="0"
     fit-margin-bottom="0" />
  <metadata
     id="metadata5079">
    <rdf:RDF>
      <cc:Work
         rdf:about="">
        <dc:format>image/svg+xml</dc:format>
        <dc:type
           rdf:resource="http://purl.org/dc/dcmitype/StillImage" />
        <dc:title></dc:title>
      </cc:Work>
    </rdf:RDF>
  </metadata>
  <g
     inkscape:label="Layer 1"
     inkscape:groupmode="layer"
     id="layer1"
     transform="translate(-0.42376563,-1002.0904)">
    <rect
       style="opacity:1;fill:none;fill-opacity:1;stroke:#000000;stroke-width:1.85122323;stroke-miterlimit:4;stroke-dasharray:none;stroke-opacity:1"
       id="rect5641"
       width="57.981491"
       height="48.239082"
       x="1.4396726"
       y="1002.9337" />
    <rect
       y="1004.531"
       x="3.4921145"
       height="45.044415"
       width="54.004887"
       id="rect5643"
       style="opacity:1;fill:none;fill-opacity:1;stroke:#000000;stroke-width:1.85122323;stroke-miterlimit:4;stroke-dasharray:none;stroke-opacity:0" />
    <path
       style="fill:none;fill-rule:evenodd;stroke:#000000;stroke-width:0.09256116;stroke-linecap:butt;stroke-linejoin:miter;stroke-miterlimit:4;stroke-dasharray:none;stroke-opacity:0"
       d="m 17.089543,1049.5755 9.107712,-8.7321 10.390489,-4.7919 7.568379,-18.316 3.206941,10.5956 1.924165,11.2345 4.104889,10.5423"
       id="path5645"
       inkscape:connector-curvature="0"
       sodipodi:nodetypes="ccccccc" />
    <circle
       style="opacity:1;fill:none;fill-opacity:1;stroke:#000000;stroke-width:0.16482286;stroke-miterlimit:4;stroke-dasharray:none;stroke-opacity:0"
       id="path5667"
       cx="21.258162"
       cy="1014.2617"
       r="6.6598492" />
    <path
       style="opacity:1;fill:#000000;fill-opacity:1;stroke:#000000;stroke-width:0.01262691;stroke-miterlimit:4;stroke-dasharray:none;stroke-opacity:1"
       d="m 4.0878367,24.983972 0,-21.5288757 26.0114283,0 26.011428,0 0,21.5288757 0,21.528877 -1.808422,0 -1.808423,0 -1.773886,-4.577254 -1.773886,-4.577254 -0.956597,-5.586978 -0.956597,-5.58698 -1.616711,-5.365469 c -0.889192,-2.951008 -1.645123,-5.364668 -1.679847,-5.363691 -0.03472,9.73e-4 -1.767767,4.146131 -3.851206,9.21145 l -3.788072,9.209672 -5.170077,2.372344 -5.170077,2.372343 -4.1107,3.942659 -4.1107,3.942661 -6.723827,0.0032 -6.7238283,0.0032 0,-21.528877 z M 22.089556,18.850364 c 1.262074,-0.228799 2.524883,-0.919674 3.536832,-1.934976 1.372587,-1.377136 1.944498,-2.773524 1.944498,-4.747726 0,-1.975434 -0.572305,-3.3721462 -1.944498,-4.7455577 -1.294599,-1.2957476 -3.090866,-2.068587 -4.8079,-2.068587 -1.677327,0 -3.485377,0.7655715 -4.725835,2.0010303 -2.720677,2.7097114 -2.72567,6.9196044 -0.0114,9.6113394 0.969499,0.961449 1.782571,1.430834 3.05667,1.764612 1.063303,0.278556 1.890897,0.312164 2.951633,0.119865 z"
       id="path5671"
       inkscape:connector-curvature="0"
       transform="translate(0.42376563,1002.0904)" />
  </g>
</svg>
