<?xml version="1.0" encoding="UTF-8" standalone="no"?>
<!-- Created with Inkscape (http://www.inkscape.org/) -->

<svg
   xmlns:dc="http://purl.org/dc/elements/1.1/"
   xmlns:cc="http://creativecommons.org/ns#"
   xmlns:rdf="http://www.w3.org/1999/02/22-rdf-syntax-ns#"
   xmlns:svg="http://www.w3.org/2000/svg"
   xmlns="http://www.w3.org/2000/svg"
   xmlns:sodipodi="http://sodipodi.sourceforge.net/DTD/sodipodi-0.dtd"
   xmlns:inkscape="http://www.inkscape.org/namespaces/inkscape"
   width="60"
   height="12"
   viewBox="0 0 60.000001 12"
   id="svg5515"
   version="1.1"
   inkscape:version="0.91 r13725"
   sodipodi:docname="TaglineButtonImage.svg"
   inkscape:export-filename="/Users/Ed/Developer/Approved Ideas/Multiple Event Countdown/Multiple Event Countdown/Inkscape Documents/NewEventDataButtonImages/TaglineButtonImage.png"
   inkscape:export-xdpi="90"
   inkscape:export-ydpi="90">
  <defs
     id="defs5517" />
  <sodipodi:namedview
     id="base"
     pagecolor="#ffffff"
     bordercolor="#666666"
     borderopacity="1.0"
     inkscape:pageopacity="0.0"
     inkscape:pageshadow="2"
     inkscape:zoom="11.2"
     inkscape:cx="27.923794"
     inkscape:cy="7.2443454"
     inkscape:document-units="px"
     inkscape:current-layer="layer1"
     showgrid="false"
     inkscape:window-width="1440"
     inkscape:window-height="799"
     inkscape:window-x="0"
     inkscape:window-y="1"
     inkscape:window-maximized="1"
     units="px"
     inkscape:object-paths="true"
     inkscape:object-nodes="true"
     fit-margin-top="0"
     fit-margin-left="0"
     fit-margin-right="0"
     fit-margin-bottom="0" />
  <metadata
     id="metadata5520">
    <rdf:RDF>
      <cc:Work
         rdf:about="">
        <dc:format>image/svg+xml</dc:format>
        <dc:type
           rdf:resource="http://purl.org/dc/dcmitype/StillImage" />
        <dc:title />
      </cc:Work>
    </rdf:RDF>
  </metadata>
  <g
     inkscape:label="Layer 1"
     inkscape:groupmode="layer"
     id="layer1"
     transform="translate(-1.5569749,-1031.912)">
    <g
       id="g5553"
       transform="matrix(1.0257725,0,0,1.0187647,-0.0403072,-19.588871)"
       style="stroke:#000000;stroke-opacity:0">
      <rect
         y="1032.1835"
         x="8.4821424"
         height="8.9285717"
         width="44.642857"
         id="rect5542"
         style="opacity:1;fill:none;fill-opacity:1;fill-rule:nonzero;stroke:#000000;stroke-width:0.1;stroke-linecap:round;stroke-linejoin:round;stroke-miterlimit:4;stroke-dasharray:none;stroke-opacity:0" />
      <path
         sodipodi:nodetypes="cccccc"
         inkscape:connector-curvature="0"
         id="rect5544"
         d="m 53.124999,1037.3621 6.875001,0 -3.623891,3.2694 3.623891,3.2306 -9.5,0 0,-2.7501"
         style="opacity:1;fill:none;fill-opacity:1;fill-rule:nonzero;stroke:#000000;stroke-width:0.1;stroke-linecap:round;stroke-linejoin:round;stroke-miterlimit:4;stroke-dasharray:none;stroke-opacity:0" />
      <path
         inkscape:connector-curvature="0"
         id="path5547"
         d="m 53.125,1041.1121 -2.625,2.75"
         style="fill:none;fill-rule:evenodd;stroke:#000000;stroke-width:0.1;stroke-linecap:butt;stroke-linejoin:miter;stroke-miterlimit:4;stroke-dasharray:none;stroke-opacity:0" />
      <path
         style="opacity:1;fill:none;fill-opacity:1;fill-rule:nonzero;stroke:#000000;stroke-width:0.1;stroke-linecap:round;stroke-linejoin:round;stroke-miterlimit:4;stroke-dasharray:none;stroke-opacity:0"
         d="m 8.4821434,1037.3621 -6.875001,0 3.623891,3.2694 -3.623891,3.2306 9.4999996,0 0,-2.7501"
         id="path5549"
         inkscape:connector-curvature="0"
         sodipodi:nodetypes="cccccc" />
      <path
         style="fill:none;fill-rule:evenodd;stroke:#000000;stroke-width:0.1;stroke-linecap:butt;stroke-linejoin:miter;stroke-miterlimit:4;stroke-dasharray:none;stroke-opacity:0"
         d="m 8.4821424,1041.1121 2.6249996,2.75"
         id="path5551"
         inkscape:connector-curvature="0" />
    </g>
    <path
       style="opacity:1;fill:#000000;fill-opacity:1;fill-rule:nonzero;stroke:#000000;stroke-width:0.00892857;stroke-linecap:round;stroke-linejoin:round;stroke-miterlimit:4;stroke-dasharray:none;stroke-opacity:1"
       d="m 7.2273655,4.6127975 0,-4.46428572 22.7678575,0 22.767857,0 0,4.46428572 0,4.4642857 -22.767857,0 -22.7678575,0 0,-4.4642857 z"
       id="path5560"
       inkscape:connector-curvature="0"
       transform="translate(1.5569749,1031.912)" />
    <path
       style="opacity:1;fill:#000000;fill-opacity:1;fill-rule:nonzero;stroke:#000000;stroke-width:0.00892857;stroke-linecap:round;stroke-linejoin:round;stroke-miterlimit:4;stroke-dasharray:none;stroke-opacity:1"
       d="m 50.26308,10.481658 0,-1.2260033 1.168217,0 1.168217,0 -0.268987,0.3348214 c -0.147942,0.1841518 -0.67364,0.7358529 -1.168217,1.2260029 l -0.89923,0.891183 0,-1.226004 z"
       id="path5562"
       inkscape:connector-curvature="0"
       transform="translate(1.5569749,1031.912)" />
    <path
       style="opacity:1;fill:#000000;fill-opacity:1;fill-rule:nonzero;stroke:#000000;stroke-width:0.00892857;stroke-linecap:round;stroke-linejoin:round;stroke-miterlimit:4;stroke-dasharray:none;stroke-opacity:1"
       d="m 51.725734,10.501426 1.305203,-1.3435151 0,-1.870771 0,-1.870771 3.323864,0 3.323864,0 -0.221186,0.2142017 c -0.121652,0.1178109 -0.904221,0.8237472 -1.739042,1.5687473 -0.834821,0.745 -1.529938,1.3879784 -1.544705,1.4288407 -0.01477,0.040862 0.688359,0.7070618 1.5625,1.4804434 0.874142,0.773381 1.668589,1.48044 1.765439,1.571243 0.171451,0.160745 0.05412,0.165095 -4.452524,0.165095 l -4.628616,0 1.305203,-1.343514 z"
       id="path5564"
       inkscape:connector-curvature="0"
       transform="translate(1.5569749,1031.912)" />
    <path
       style="opacity:1;fill:#000000;fill-opacity:1;fill-rule:nonzero;stroke:#000000;stroke-width:0.00892857;stroke-linecap:round;stroke-linejoin:round;stroke-miterlimit:4;stroke-dasharray:none;stroke-opacity:1"
       d="M 0.69058705,11.509877 C 3.1376523,9.371421 3.8243161,8.7506124 3.8289941,8.672463 3.8320269,8.6217968 3.0510262,7.8807965 2.0934369,7.0257956 1.1358476,6.1707948 0.35236549,5.4589007 0.35236549,5.4438088 c 0,-0.015092 1.50669641,-0.02744 3.34821431,-0.02744 l 3.3482143,0 0,1.9062026 0,1.9062026 1.258213,1.308083 1.2582129,1.308083 -4.6287486,-2.41e-4 -4.62874877,-2.42e-4 0.38286442,-0.33458 z"
       id="path5566"
       inkscape:connector-curvature="0"
       transform="translate(1.5569749,1031.912)" />
    <path
       style="opacity:1;fill:#000000;fill-opacity:1;fill-rule:nonzero;stroke:#000000;stroke-width:0.00892857;stroke-linecap:round;stroke-linejoin:round;stroke-miterlimit:4;stroke-dasharray:none;stroke-opacity:1"
       d="M 8.5385902,10.498908 7.3944578,9.3002975 8.5283917,9.275218 C 9.1520552,9.261424 9.6781639,9.265978 9.697522,9.285335 9.71688,9.304693 9.721469,9.8553535 9.707721,10.509025 l -0.024998,1.188493 -1.1441325,-1.19861 z"
       id="path5568"
       inkscape:connector-curvature="0"
       transform="translate(1.5569749,1031.912)" />
  </g>
</svg>
