<?xml version="1.0" encoding="UTF-8" standalone="no"?>
<!-- Created with Inkscape (http://www.inkscape.org/) -->

<svg
   xmlns:dc="http://purl.org/dc/elements/1.1/"
   xmlns:cc="http://creativecommons.org/ns#"
   xmlns:rdf="http://www.w3.org/1999/02/22-rdf-syntax-ns#"
   xmlns:svg="http://www.w3.org/2000/svg"
   xmlns="http://www.w3.org/2000/svg"
   xmlns:sodipodi="http://sodipodi.sourceforge.net/DTD/sodipodi-0.dtd"
   xmlns:inkscape="http://www.inkscape.org/namespaces/inkscape"
   width="180"
   height="33"
   viewBox="0 0 180 32.999994"
   id="svg4849"
   version="1.1"
   inkscape:version="0.91 r13725"
   sodipodi:docname="TitleButtonImage.svg"
   inkscape:export-filename="/Users/Ed/Developer/Approved Ideas/Multiple Event Countdown/Multiple Event Countdown/Supporting Documents/TitleButtonImage.png"
   inkscape:export-xdpi="90"
   inkscape:export-ydpi="90">
  <defs
     id="defs4851" />
  <sodipodi:namedview
     id="base"
     pagecolor="#ffffff"
     bordercolor="#666666"
     borderopacity="1.0"
     inkscape:pageopacity="0"
     inkscape:pageshadow="2"
     inkscape:zoom="4.0000002"
     inkscape:cx="91.655933"
     inkscape:cy="27.962315"
     inkscape:document-units="px"
     inkscape:current-layer="layer1"
     showgrid="false"
     units="px"
     showguides="true"
     inkscape:guide-bbox="true"
     inkscape:snap-smooth-nodes="true"
     inkscape:window-width="1440"
     inkscape:window-height="793"
     inkscape:window-x="0"
     inkscape:window-y="1"
     inkscape:window-maximized="0"
     inkscape:object-nodes="true"
     inkscape:object-paths="true"
     inkscape:snap-intersection-paths="true"
     fit-margin-top="0"
     fit-margin-left="0"
     fit-margin-right="0"
     fit-margin-bottom="0">
    <sodipodi:guide
       position="29.717074,5.8098248"
       orientation="1,0"
       id="guide5399"
       inkscape:label=""
       inkscape:color="rgb(0,0,255)" />
  </sodipodi:namedview>
  <metadata
     id="metadata4854">
    <rdf:RDF>
      <cc:Work
         rdf:about="">
        <dc:format>image/svg+xml</dc:format>
        <dc:type
           rdf:resource="http://purl.org/dc/dcmitype/StillImage" />
        <dc:title></dc:title>
      </cc:Work>
    </rdf:RDF>
  </metadata>
  <g
     inkscape:label="Layer 1"
     inkscape:groupmode="layer"
     id="layer1"
     transform="translate(-0.28292611,-1010.1719)">
    <g
       id="g5012"
       style="stroke:#000000;stroke-width:0.5;stroke-miterlimit:4;stroke-dasharray:none;stroke-opacity:0"
       transform="matrix(2.9338092,0,0,3.0177274,-0.51628271,-2104.8149)">
      <path
         sodipodi:open="true"
         d="m 10.632961,1041.6921 a 48.108257,48.108257 0 0 1 40.662855,0"
         sodipodi:end="5.1487213"
         sodipodi:start="4.2760567"
         sodipodi:ry="48.108257"
         sodipodi:rx="48.108257"
         sodipodi:cy="1085.293"
         sodipodi:cx="30.964388"
         sodipodi:type="arc"
         id="path5409"
         style="opacity:1;fill:none;fill-opacity:1;stroke:#000000;stroke-width:0.5;stroke-linecap:round;stroke-linejoin:round;stroke-miterlimit:4;stroke-dasharray:none;stroke-opacity:0" />
      <path
         sodipodi:open="true"
         d="m 8.6446529,1037.4281 a 52.812996,52.812996 0 0 1 44.6394721,0"
         sodipodi:end="5.1487213"
         sodipodi:start="4.2760567"
         sodipodi:ry="52.812996"
         sodipodi:rx="52.812996"
         sodipodi:cy="1085.293"
         sodipodi:cx="30.964388"
         sodipodi:type="arc"
         id="path5409-3"
         style="opacity:1;fill:none;fill-opacity:1;stroke:#000000;stroke-width:0.5;stroke-linecap:round;stroke-linejoin:round;stroke-miterlimit:4;stroke-dasharray:none;stroke-opacity:0" />
      <path
         sodipodi:nodetypes="cc"
         inkscape:connector-curvature="0"
         id="path5453"
         d="m 51.295817,1041.6921 1.988308,-4.2639"
         style="fill:none;fill-rule:evenodd;stroke:#000000;stroke-width:0.5;stroke-linecap:butt;stroke-linejoin:miter;stroke-miterlimit:4;stroke-dasharray:none;stroke-opacity:0" />
      <path
         sodipodi:nodetypes="cc"
         inkscape:connector-curvature="0"
         id="path5457"
         d="m 10.632962,1041.6921 -1.9883081,-4.2639"
         style="fill:none;fill-rule:evenodd;stroke:#000000;stroke-width:0.5;stroke-linecap:butt;stroke-linejoin:miter;stroke-miterlimit:4;stroke-dasharray:none;stroke-opacity:0" />
      <path
         sodipodi:nodetypes="ccccc"
         inkscape:connector-curvature="0"
         id="path5459"
         d="m 52.298127,1039.5426 6.510441,3.0359 -2.177875,-3.5806 4.142792,-0.6332 -10.768543,-5.0214 -0.777863,2.3947"
         style="fill:none;fill-rule:evenodd;stroke:#000000;stroke-width:0.5;stroke-linecap:butt;stroke-linejoin:miter;stroke-miterlimit:4;stroke-dasharray:none;stroke-opacity:0" />
      <path
         sodipodi:nodetypes="cc"
         inkscape:connector-curvature="0"
         id="path5471"
         d="m 50.004942,1033.3433 3.279183,4.0849"
         style="fill:none;fill-rule:evenodd;stroke:#000000;stroke-width:0.5;stroke-linecap:butt;stroke-linejoin:miter;stroke-miterlimit:4;stroke-dasharray:none;stroke-opacity:0" />
      <path
         style="fill:none;fill-rule:evenodd;stroke:#000000;stroke-width:0.5;stroke-linecap:butt;stroke-linejoin:miter;stroke-miterlimit:4;stroke-dasharray:none;stroke-opacity:0"
         d="m 9.6017849,1039.5532 -6.5104408,3.036 2.1778749,-3.5807 -4.1427913,-0.6331 10.7685413,-5.0215 0.777864,2.3948"
         id="path5492"
         inkscape:connector-curvature="0"
         sodipodi:nodetypes="ccccc" />
      <path
         style="fill:none;fill-rule:evenodd;stroke:#000000;stroke-width:0.5;stroke-linecap:butt;stroke-linejoin:miter;stroke-miterlimit:4;stroke-dasharray:none;stroke-opacity:0"
         d="m 11.894969,1033.3539 -3.2503151,4.0743"
         id="path5494"
         inkscape:connector-curvature="0"
         sodipodi:nodetypes="cc" />
    </g>
    <path
       style="opacity:1;fill:#000000;fill-opacity:1;stroke:#ffffff;stroke-width:0.12499999;stroke-miterlimit:4;stroke-dasharray:none;stroke-opacity:1"
       d="M 30.618047,6.1902242 C 22.300909,9.9828822 13.990033,13.862826 5.9075984,18.116493 c 3.2042787,0.779992 6.6273696,0.908951 9.7656246,1.763184 -1.213504,3.216102 -3.472972,6.057011 -4.94043,9.101073 5.238061,-2.213237 10.350774,-4.831341 15.448242,-7.319335 -0.662877,-2.088425 -1.834499,-4.023919 -2.457031,-6.104492 2.142259,-3.213903 4.852043,-6.1654898 6.894043,-9.3666988 z"
       id="path4243"
       inkscape:connector-curvature="0"
       transform="translate(0.28292611,1010.1719)" />
    <path
       style="opacity:1;fill:#000000;fill-opacity:1;stroke:#ffffff;stroke-width:0.12499999;stroke-miterlimit:4;stroke-dasharray:none;stroke-opacity:1"
       d="m 32.42664,6.9822163 c -1.511312,2.0342044 -3.288971,3.9447617 -4.57373,6.1054687 2.420722,-0.932347 4.977612,-1.843926 7.209472,-3.082031 C 34.904791,8.3669513 34.23272,6.8287731 33.795292,5.252236 33.339075,5.8288961 32.882857,6.4055562 32.42664,6.9822163 Z"
       id="path4245"
       inkscape:connector-curvature="0"
       transform="translate(0.28292611,1010.1719)" />
    <path
       style="opacity:1;fill:#000000;fill-opacity:1;stroke:#ffffff;stroke-width:0.12499999;stroke-miterlimit:4;stroke-dasharray:none;stroke-opacity:1"
       d="m 89.221558,1.6531151 c -21.888556,0.096163 -43.701112,5.149984 -63.49316,14.4711909 1.728401,3.69917 3.288779,7.679143 5.168457,11.18994 16.051346,-7.385174 33.444657,-12.011541 51.111629,-12.950215 10.598211,-0.388752 21.269766,-0.178301 31.718866,1.80386 11.85432,1.958589 23.32539,5.755625 34.30682,10.577945 1.26445,0.97849 1.7638,-0.0539 2.08857,-1.227889 1.41623,-3.13228 2.84061,-6.260862 4.26434,-9.389735 C 134.11029,6.5164659 111.66329,1.5124594 89.221558,1.6531151 Z"
       id="path4247"
       inkscape:connector-curvature="0"
       transform="translate(0.28292611,1010.1719)" />
    <path
       style="opacity:1;fill:#000000;fill-opacity:1;stroke:#ffffff;stroke-width:0.12499999;stroke-miterlimit:4;stroke-dasharray:none;stroke-opacity:1"
       d="m 146.19079,5.5198141 c -0.51928,1.4288593 -1.1499,2.9825072 -1.30615,4.4526363 2.33363,1.1815916 4.79959,2.2267456 7.25537,3.0761716 -0.74909,-1.691257 -2.35381,-3.1832953 -3.48855,-4.7410655 -0.80789,-0.9309783 -1.54405,-1.9743372 -2.46067,-2.7877424 z"
       id="path4249"
       inkscape:connector-curvature="0"
       transform="translate(0.28292611,1010.1719)" />
    <path
       style="opacity:1;fill:#000000;fill-opacity:1;stroke:#ffffff;stroke-width:0.12499999;stroke-miterlimit:4;stroke-dasharray:none;stroke-opacity:1"
       d="m 149.40515,6.1570211 c 2.10361,3.3322513 4.96518,6.2559339 7.02539,9.5517569 -0.72612,1.946844 -1.91337,3.811102 -2.43555,5.778808 4.94657,2.814047 10.17252,5.198441 15.32568,7.56543 -1.46637,-3.1701 -3.83861,-6.025307 -5.05322,-9.324707 3.17545,-0.631282 6.58602,-0.916043 9.646,-1.630371 -5.66366,-3.304036 -11.75114,-5.874665 -17.6331,-8.7828628 -2.28513,-1.0545545 -4.55997,-2.2151957 -6.8752,-3.1580541 z"
       id="path4251"
       inkscape:connector-curvature="0"
       transform="translate(0.28292611,1010.1719)" />
  </g>
</svg>
